<?xml version="1.0" encoding="UTF-8" standalone="no"?>
<!DOCTYPE svg PUBLIC "-//W3C//DTD SVG 1.1//EN"
 "http://www.w3.org/Graphics/SVG/1.1/DTD/svg11.dtd">
<!-- Generated by graphviz version 14.1.2 (20260124.0452)
 -->
<!-- Title: GSD Pages: 1 -->
<svg width="422pt" height="236pt"
 viewBox="0.00 0.00 422.00 236.00" xmlns="http://www.w3.org/2000/svg" xmlns:xlink="http://www.w3.org/1999/xlink">
<g id="graph0" class="graph" transform="scale(1 1) rotate(0) translate(4 232)">
<title>GSD</title>
<polygon fill="white" stroke="none" points="-4,4 -4,-232 418.5,-232 418.5,4 -4,4"/>
<!-- ListFiles -->
<g id="node1" class="node">
<title>ListFiles</title>
<polygon fill="#fff3e0" stroke="black" points="186,-228 120.5,-190 186,-152 251.5,-190 186,-228"/>
<text xml:space="preserve" text-anchor="middle" x="186" y="-191.7" font-family="Helvetica,sans-Serif" font-size="14.00">ListFiles</text>
<text xml:space="preserve" text-anchor="middle" x="186" y="-176.7" font-family="Helvetica,sans-Serif" font-size="14.00">[finally]</text>
</g>
<!-- Analyze -->
<g id="node2" class="node">
<title>Analyze</title>
<polygon fill="#e3f2fd" stroke="black" points="218,-116 154,-116 154,-80 218,-80 218,-116"/>
<text xml:space="preserve" text-anchor="middle" x="186" y="-92.2" font-family="Helvetica,sans-Serif" font-size="14.00">Analyze</text>
</g>
<!-- ListFiles&#45;&gt;Analyze -->
<g id="edge1" class="edge">
<title>ListFiles&#45;&gt;Analyze</title>
<path fill="none" stroke="black" d="M186,-151.61C186,-143.5 186,-135.05 186,-127.35"/>
<polygon fill="black" stroke="black" points="189.5,-127.55 186,-117.55 182.5,-127.55 189.5,-127.55"/>
</g>
<!-- ExtractToFile -->
<g id="node3" class="node">
<title>ExtractToFile</title>
<polygon fill="#e3f2fd" stroke="black" points="98,-40 4,-40 4,-4 98,-4 98,-40"/>
<polygon fill="none" stroke="black" points="102,-44 0,-44 0,0 102,0 102,-44"/>
<text xml:space="preserve" text-anchor="middle" x="51" y="-16.2" font-family="Helvetica,sans-Serif" font-size="14.00">ExtractToFile</text>
</g>
<!-- Analyze&#45;&gt;ExtractToFile -->
<g id="edge2" class="edge">
<title>Analyze&#45;&gt;ExtractToFile</title>
<path fill="none" stroke="black" d="M154.35,-79.65C138.25,-70.82 118.31,-59.9 100.26,-50"/>
<polygon fill="black" stroke="black" points="101.96,-46.94 91.5,-45.2 98.59,-53.08 101.96,-46.94"/>
</g>
<!-- RenameVariables -->
<g id="node4" class="node">
<title>RenameVariables</title>
<polygon fill="#e3f2fd" stroke="black" points="248,-40 124,-40 124,-4 248,-4 248,-40"/>
<polygon fill="none" stroke="black" points="252,-44 120,-44 120,0 252,0 252,-44"/>
<text xml:space="preserve" text-anchor="middle" x="186" y="-16.2" font-family="Helvetica,sans-Serif" font-size="14.00">RenameVariables</text>
</g>
<!-- Analyze&#45;&gt;RenameVariables -->
<g id="edge3" class="edge">
<title>Analyze&#45;&gt;RenameVariables</title>
<path fill="none" stroke="black" d="M186,-79.84C186,-72.64 186,-64.02 186,-55.7"/>
<polygon fill="black" stroke="black" points="189.5,-55.82 186,-45.82 182.5,-55.82 189.5,-55.82"/>
</g>
<!-- RemoveUnused -->
<g id="node5" class="node">
<title>RemoveUnused</title>
<polygon fill="#e3f2fd" stroke="black" points="387.75,-40 274.25,-40 274.25,-4 387.75,-4 387.75,-40"/>
<polygon fill="none" stroke="black" points="391.75,-44 270.25,-44 270.25,0 391.75,0 391.75,-44"/>
<text xml:space="preserve" text-anchor="middle" x="331" y="-16.2" font-family="Helvetica,sans-Serif" font-size="14.00">RemoveUnused</text>
</g>
<!-- Analyze&#45;&gt;RemoveUnused -->
<g id="edge4" class="edge">
<title>Analyze&#45;&gt;RemoveUnused</title>
<path fill="none" stroke="black" d="M218.18,-80.58C236.02,-71.47 258.65,-59.93 278.94,-49.57"/>
<polygon fill="black" stroke="black" points="280.33,-52.79 287.64,-45.13 277.15,-46.55 280.33,-52.79"/>
</g>
<!-- Commit -->
<g id="node6" class="node">
<title>Commit</title>
<polygon fill="#fff3e0" stroke="black" points="342,-208 283.17,-190 342,-172 400.83,-190 342,-208"/>
<polygon fill="none" stroke="black" points="342,-212.18 269.5,-190 342,-167.82 414.5,-190 342,-212.18"/>
<text xml:space="preserve" text-anchor="middle" x="342" y="-184.2" font-family="Helvetica,sans-Serif" font-size="14.00">Commit</text>
</g>
</g>
</svg>
