<?xml version="1.0" encoding="UTF-8" standalone="no"?>
<!DOCTYPE svg PUBLIC "-//W3C//DTD SVG 1.1//EN"
 "http://www.w3.org/Graphics/SVG/1.1/DTD/svg11.dtd">
<!-- Generated by graphviz version 14.1.2 (20260124.0452)
 -->
<!-- Title: GSD Pages: 1 -->
<svg width="236pt" height="164pt"
 viewBox="0.00 0.00 236.00 164.00" xmlns="http://www.w3.org/2000/svg" xmlns:xlink="http://www.w3.org/1999/xlink">
<g id="graph0" class="graph" transform="scale(1 1) rotate(0) translate(4 160)">
<title>GSD</title>
<polygon fill="white" stroke="none" points="-4,4 -4,-160 231.88,-160 231.88,4 -4,4"/>
<!-- ListFiles -->
<g id="node1" class="node">
<title>ListFiles</title>
<polygon fill="#fff3e0" stroke="black" points="65.5,-156 0,-118 65.5,-80 131,-118 65.5,-156"/>
<text xml:space="preserve" text-anchor="middle" x="65.5" y="-119.7" font-family="Helvetica,sans-Serif" font-size="14.00">ListFiles</text>
<text xml:space="preserve" text-anchor="middle" x="65.5" y="-104.7" font-family="Helvetica,sans-Serif" font-size="14.00">[finally]</text>
</g>
<!-- ConvertToTS -->
<g id="node2" class="node">
<title>ConvertToTS</title>
<polygon fill="#e3f2fd" stroke="black" points="112.88,-40 18.12,-40 18.12,-4 112.88,-4 112.88,-40"/>
<polygon fill="none" stroke="black" points="116.88,-44 14.12,-44 14.12,0 116.88,0 116.88,-44"/>
<text xml:space="preserve" text-anchor="middle" x="65.5" y="-16.2" font-family="Helvetica,sans-Serif" font-size="14.00">ConvertToTS</text>
</g>
<!-- ListFiles&#45;&gt;ConvertToTS -->
<g id="edge1" class="edge">
<title>ListFiles&#45;&gt;ConvertToTS</title>
<path fill="none" stroke="black" d="M65.5,-79.58C65.5,-71.72 65.5,-63.48 65.5,-55.8"/>
<polygon fill="black" stroke="black" points="69,-55.84 65.5,-45.84 62,-55.84 69,-55.84"/>
</g>
<!-- FixErrors -->
<g id="node3" class="node">
<title>FixErrors</title>
<polygon fill="#e3f2fd" stroke="black" points="223.88,-136 153.12,-136 153.12,-100 223.88,-100 223.88,-136"/>
<polygon fill="none" stroke="black" points="227.88,-140 149.12,-140 149.12,-96 227.88,-96 227.88,-140"/>
<text xml:space="preserve" text-anchor="middle" x="188.5" y="-112.2" font-family="Helvetica,sans-Serif" font-size="14.00">FixErrors</text>
</g>
</g>
</svg>
