<?xml version="1.0" encoding="UTF-8" standalone="no"?>
<!DOCTYPE svg PUBLIC "-//W3C//DTD SVG 1.1//EN"
 "http://www.w3.org/Graphics/SVG/1.1/DTD/svg11.dtd">
<!-- Generated by graphviz version 14.1.2 (20260124.0452)
 -->
<!-- Title: GSD Pages: 1 -->
<svg width="360pt" height="164pt"
 viewBox="0.00 0.00 360.00 164.00" xmlns="http://www.w3.org/2000/svg" xmlns:xlink="http://www.w3.org/1999/xlink">
<g id="graph0" class="graph" transform="scale(1 1) rotate(0) translate(4 160)">
<title>GSD</title>
<polygon fill="white" stroke="none" points="-4,4 -4,-160 356.25,-160 356.25,4 -4,4"/>
<!-- ListChanges -->
<g id="node1" class="node">
<title>ListChanges</title>
<polygon fill="#fff3e0" stroke="black" points="128.88,-156 37.88,-118 128.87,-80 219.88,-118 128.88,-156"/>
<text xml:space="preserve" text-anchor="middle" x="128.88" y="-119.7" font-family="Helvetica,sans-Serif" font-size="14.00">ListChanges</text>
<text xml:space="preserve" text-anchor="middle" x="128.88" y="-104.7" font-family="Helvetica,sans-Serif" font-size="14.00">[finally]</text>
</g>
<!-- CheckStandards -->
<g id="node2" class="node">
<title>CheckStandards</title>
<polygon fill="#e3f2fd" stroke="black" points="119.75,-40 4,-40 4,-4 119.75,-4 119.75,-40"/>
<polygon fill="none" stroke="black" points="123.75,-44 0,-44 0,0 123.75,0 123.75,-44"/>
<text xml:space="preserve" text-anchor="middle" x="61.88" y="-16.2" font-family="Helvetica,sans-Serif" font-size="14.00">CheckStandards</text>
</g>
<!-- ListChanges&#45;&gt;CheckStandards -->
<g id="edge1" class="edge">
<title>ListChanges&#45;&gt;CheckStandards</title>
<path fill="none" stroke="black" d="M108.41,-88.29C100.61,-77.35 91.7,-64.84 83.77,-53.72"/>
<polygon fill="black" stroke="black" points="86.65,-51.72 77.99,-45.61 80.94,-55.78 86.65,-51.72"/>
</g>
<!-- CheckSecurity -->
<g id="node3" class="node">
<title>CheckSecurity</title>
<polygon fill="#e3f2fd" stroke="black" points="248.38,-40 145.38,-40 145.38,-4 248.38,-4 248.38,-40"/>
<polygon fill="none" stroke="black" points="252.38,-44 141.38,-44 141.38,0 252.38,0 252.38,-44"/>
<text xml:space="preserve" text-anchor="middle" x="196.88" y="-16.2" font-family="Helvetica,sans-Serif" font-size="14.00">CheckSecurity</text>
</g>
<!-- ListChanges&#45;&gt;CheckSecurity -->
<g id="edge2" class="edge">
<title>ListChanges&#45;&gt;CheckSecurity</title>
<path fill="none" stroke="black" d="M149.65,-88.29C157.64,-77.23 166.79,-64.59 174.9,-53.38"/>
<polygon fill="black" stroke="black" points="177.5,-55.76 180.52,-45.6 171.83,-51.65 177.5,-55.76"/>
</g>
<!-- CompileReport -->
<g id="node4" class="node">
<title>CompileReport</title>
<polygon fill="#e3f2fd" stroke="black" points="348.25,-136 241.5,-136 241.5,-100 348.25,-100 348.25,-136"/>
<polygon fill="none" stroke="black" points="352.25,-140 237.5,-140 237.5,-96 352.25,-96 352.25,-140"/>
<text xml:space="preserve" text-anchor="middle" x="294.88" y="-112.2" font-family="Helvetica,sans-Serif" font-size="14.00">CompileReport</text>
</g>
</g>
</svg>
